<svg height="512pt" viewBox="-88 0 512 512" width="512pt" xmlns="http://www.w3.org/2000/svg"><path d="m280.101562 0h-224.9375c-30.417968 0-55.164062 24.746094-55.164062 55.167969v401.667969c0 30.417968 24.746094 55.164062 55.164062 55.164062h224.9375c30.417969 0 55.164063-24.746094 55.164063-55.164062v-401.667969c0-30.421875-24.746094-55.167969-55.164063-55.167969zm25.164063 456.835938c0 13.875-11.289063 25.164062-25.164063 25.164062h-224.9375c-13.875 0-25.164062-11.289062-25.164062-25.164062v-401.667969c0-13.878907 11.289062-25.167969 25.164062-25.167969h65.390626c-.023438.355469-.054688.707031-.054688 1.066406 0 8.285156 6.714844 15 15 15h64.265625c8.285156 0 15-6.714844 15-15 0-.359375-.027344-.710937-.054687-1.066406h65.390624c13.875 0 25.164063 11.289062 25.164063 25.167969zm0 0"/><path d="m229.328125 229.328125-144.601563 144.597656c-5.859374 5.859375-5.859374 15.355469 0 21.214844 2.929688 2.925781 6.765626 4.390625 10.605469 4.390625 3.839844 0 7.679688-1.464844 10.605469-4.390625l144.601562-144.601563c5.859376-5.855468 5.859376-15.355468 0-21.210937-5.855468-5.859375-15.351562-5.859375-21.210937 0zm0 0"/><path d="m229.328125 116.859375-144.601563 144.601563c-5.859374 5.859374-5.859374 15.355468 0 21.214843 2.925782 2.925781 6.765626 4.390625 10.605469 4.390625 3.835938 0 7.675781-1.464844 10.605469-4.390625l144.601562-144.601562c5.859376-5.855469 5.859376-15.355469 0-21.210938-5.855468-5.859375-15.351562-5.859375-21.210937-.003906zm0 0"/></svg>